<svg xmlns="http://www.w3.org/2000/svg" width="500" height="500" viewBox="0 0 500 500"><rect width="100%" height="100%" fill="#DDDDDD"/><path fill="#999999" d="M131.27 228.31h7.12v43.38h-4.15q-.95 0-1.6-.32-.65-.31-1.24-1.06l-22.66-28.92q.19 1.98.19 3.66v26.64h-7.11v-43.38h4.23q.5 0 .88.04.37.05.66.18.28.14.56.39.27.26.59.68l22.75 29.04q-.09-1.05-.16-2.07-.06-1.02-.06-1.89zM189.41 250q0 4.77-1.57 8.84-1.58 4.06-4.46 7.03t-6.92 4.63q-4.06 1.67-9.01 1.67-4.92 0-8.97-1.67-4.05-1.66-6.94-4.63t-4.49-7.03q-1.59-4.07-1.59-8.84t1.59-8.83q1.6-4.07 4.49-7.04t6.94-4.64q4.05-1.66 8.97-1.66 3.3 0 6.21.77 2.91.76 5.34 2.16 2.43 1.39 4.37 3.38 1.93 2 3.28 4.46t2.06 5.34q.7 2.88.7 6.06m-8.25 0q0-3.57-.95-6.4-.97-2.84-2.74-4.82-1.76-1.98-4.3-3.03t-5.72-1.05-5.71 1.05q-2.54 1.05-4.32 3.03-1.79 1.98-2.75 4.82-.96 2.83-.96 6.4t.96 6.4q.96 2.84 2.75 4.81 1.78 1.96 4.32 3.01 2.53 1.05 5.71 1.05t5.72-1.05 4.3-3.01q1.77-1.97 2.74-4.81.95-2.83.95-6.4m38.04-21.69v43.38h-8.1v-43.38zm50.64 0h6.09v43.38h-7.11v-28.02q0-1.68.18-3.63l-13.11 24.63q-.93 1.77-2.85 1.77h-1.14q-1.92 0-2.85-1.77l-13.26-24.72q.09.99.15 1.95t.06 1.77v28.02h-7.11v-43.38h6.09q.54 0 .93.03t.71.15q.31.12.57.39.25.27.49.72l12.99 24.09q.51.96.95 1.98.43 1.02.85 2.1.42-1.11.87-2.14.45-1.04.96-2l12.81-24.03q.24-.45.51-.72t.59-.39q.31-.12.7-.15t.93-.03m24.87 27h13.8l-5.28-14.43q-.39-.96-.81-2.28t-.84-2.85q-.39 1.53-.81 2.87-.42 1.33-.81 2.32zm11.01-27 17.04 43.38h-6.24q-1.05 0-1.71-.53-.66-.52-.99-1.3l-3.24-8.85h-17.97l-3.24 8.85q-.24.69-.93 1.26t-1.71.57h-6.3l17.07-43.38zm42.9 21.63h14.4v17.55q-3.3 2.43-7.03 3.55-3.74 1.13-8 1.13-5.31 0-9.61-1.65-4.31-1.65-7.35-4.59-3.05-2.94-4.7-7.02t-1.65-8.91q0-4.89 1.59-8.97 1.6-4.08 4.52-7.02t7.09-4.56 9.36-1.62q2.64 0 4.94.42 2.29.42 4.26 1.16 1.96.73 3.58 1.78 1.63 1.05 2.97 2.31l-2.31 3.66q-.53.87-1.41 1.07-.87.19-1.89-.44-.98-.57-1.98-1.14-.99-.57-2.2-.99-1.22-.42-2.73-.69-1.52-.27-3.5-.27-3.21 0-5.8 1.08-2.6 1.08-4.43 3.09t-2.82 4.83-.99 6.3q0 3.72 1.07 6.65 1.06 2.92 3 4.95 1.93 2.02 4.66 3.09 2.74 1.06 6.09 1.06 2.4 0 4.29-.51t3.69-1.38V256h-5.46q-.78 0-1.21-.44-.44-.43-.44-1.06zm49.56-15.21h-19.25v12.03h15.18v6.21h-15.18v12.27h19.25v6.45h-27.36v-43.38h27.36z"/></svg>